{
    "asset": {
        "version": "2.0",
        "generator": "Open Asset Import Library (assimp v5.0.5eb040c7)"
    },
    "accessors": [
        {
            "bufferView": 0,
            "byteOffset": 0,
            "componentType": 5126,
            "count": 6599,
            "type": "VEC3",
            "max": [
                6.403255939483643,
                6.737068176269531,
                7.620824813842773
            ],
            "min": [
                -6.034488201141357,
                -0.01601099967956543,
                -7.029338836669922
            ]
        },
        {
            "bufferView": 1,
            "byteOffset": 0,
            "componentType": 5126,
            "count": 6599,
            "type": "VEC3",
            "max": [
                1.0,
                1.0,
                1.0
            ],
            "min": [
                -1.0,
                -1.0,
                -1.0
            ]
        },
        {
            "bufferView": 2,
            "byteOffset": 0,
            "componentType": 5126,
            "count": 6599,
            "type": "VEC2",
            "max": [
                0.9992640018463135,
                0.9997220039367676
            ],
            "min": [
                0.00027799999224953353,
                0.0006399750709533691
            ]
        },
        {
            "bufferView": 3,
            "byteOffset": 0,
            "componentType": 5125,
            "count": 12843,
            "type": "SCALAR",
            "max": [
                6598
            ],
            "min": [
                0
            ]
        }
    ],
    "buffers": [
        {
            "byteLength": 262540,
            "uri": "result.bin"
        }
    ],
    "bufferViews": [
        {
            "buffer": 0,
            "byteOffset": 0,
            "byteLength": 79188,
            "target": 34962
        },
        {
            "buffer": 0,
            "byteOffset": 79188,
            "byteLength": 79188,
            "target": 34962
        },
        {
            "buffer": 0,
            "byteOffset": 158376,
            "byteLength": 52792,
            "target": 34962
        },
        {
            "buffer": 0,
            "byteOffset": 211168,
            "byteLength": 51372,
            "target": 34963
        }
    ],
    "materials": [
        {
            "name": "DefaultMaterial",
            "pbrMetallicRoughness": {
                "baseColorFactor": [
                    0.6000000238418579,
                    0.6000000238418579,
                    0.6000000238418579,
                    1.0
                ],
                "metallicFactor": 0.0
            }
        },
        {
            "name": "Cottage_FREE",
            "pbrMetallicRoughness": {
                "baseColorFactor": [
                    0.6000000238418579,
                    0.6000000238418579,
                    0.6000000238418579,
                    1.0
                ],
                "metallicFactor": 0.0
            }
        }
    ],
    "meshes": [
        {
            "name": "Cottage_Free",
            "primitives": [
                {
                    "mode": 4,
                    "material": 1,
                    "indices": 3,
                    "attributes": {
                        "POSITION": 0,
                        "NORMAL": 1,
                        "TEXCOORD_0": 2
                    }
                }
            ]
        }
    ],
    "nodes": [
        {
            "name": "input.obj",
            "children": [
                1
            ]
        },
        {
            "name": "Cottage_Free",
            "mesh": 0
        }
    ],
    "scenes": [
        {
            "nodes": [
                0
            ]
        }
    ],
    "scene": 0
}